<?xml version="1.0" encoding="UTF-8"?>
<svg version="1.1" xmlns="http://www.w3.org/2000/svg" width="1000" height="1000">
<path d="M0 0 C3.3404029 4.49809383 3.01083596 8.18185025 2.93804932 13.65029907 C2.94359833 14.70946533 2.94914734 15.76863159 2.9548645 16.8598938 C2.96667395 20.36112731 2.94236431 23.86107006 2.91656494 27.36221313 C2.91485364 29.79973288 2.91491972 32.23725447 2.91668701 34.67477417 C2.91503283 39.78593535 2.89632078 44.89665845 2.86480713 50.00772095 C2.82521402 56.54566013 2.82075176 63.08302317 2.82826996 69.62105942 C2.83134694 74.65696448 2.81919173 79.6927411 2.80213928 84.72861481 C2.79512687 87.13824914 2.79198261 89.54789803 2.79283142 91.95754242 C2.79102448 95.33455943 2.76956241 98.71089976 2.74273682 102.08779907 C2.74566742 103.0761676 2.74859802 104.06453613 2.75161743 105.08285522 C2.63871882 114.3407416 0.70187658 121.57321724 -5.70452881 128.40127563 C-11.81022368 133.74526996 -18.73926965 135.51950038 -26.70062256 135.39346313 C-33.92543698 134.74872904 -39.1053769 132.16903205 -44.11468506 126.94033813 C-49.08436862 120.80604186 -51.35253363 114.36897267 -51.02093506 106.45205688 C-49.80408448 98.22448761 -46.08024397 92.30508622 -39.67718506 87.12783813 C-34.54248675 83.54549048 -30.44585639 82.97621196 -24.23968506 82.94033813 C-22.57099365 82.9190686 -22.57099365 82.9190686 -20.86859131 82.89736938 C-17.67718506 83.12783813 -17.67718506 83.12783813 -12.67718506 85.12783813 C-13.00718506 72.91783813 -13.33718506 60.70783813 -13.67718506 48.12783813 C-19.05644287 49.21065063 -24.43570068 50.29346313 -29.97796631 51.40908813 C-33.3822 52.0929999 -36.7864661 52.77674145 -40.19085693 53.45986938 C-45.59671109 54.54462953 -51.00243251 55.63002406 -56.40740967 56.71914673 C-60.76407035 57.59698893 -65.12128557 58.47202706 -69.47890282 59.34510803 C-71.14290698 59.67901911 -72.80670739 60.01394715 -74.47030067 60.34989929 C-76.79695345 60.81957296 -79.12429856 61.28565468 -81.45184326 61.75088501 C-82.14236282 61.89114609 -82.83288239 62.03140717 -83.54432678 62.17591858 C-86.31718452 62.72688953 -88.84072909 63.12783813 -91.67718506 63.12783813 C-91.67052322 63.95976181 -91.66386139 64.79168549 -91.65699768 65.64881897 C-91.59669001 73.51912116 -91.55111121 81.38934486 -91.52174854 89.25982571 C-91.50614501 93.30536762 -91.48500493 97.35071734 -91.4508667 101.39614868 C-91.41808225 105.30597362 -91.40029217 109.21561461 -91.39255333 113.12556648 C-91.38704385 114.6113887 -91.37628579 116.09720175 -91.35999489 117.58294487 C-91.24283769 128.71860822 -91.8008079 138.5915483 -99.67718506 147.12783813 C-105.40338473 152.29237707 -111.69287266 154.64216139 -119.50921631 154.37002563 C-127.86412663 153.4366843 -134.15609653 150.55423217 -139.67718506 144.12783813 C-143.96200396 137.47084413 -145.37836431 130.98364267 -144.67718506 123.12783813 C-143.13299767 116.15282222 -139.30599468 109.69983654 -133.45062256 105.54971313 C-126.33787296 101.62076574 -118.93054404 99.95821391 -111.00604248 102.13735962 C-109.90751953 102.46421753 -108.80899658 102.79107544 -107.67718506 103.12783813 C-107.67353943 102.10941833 -107.6698938 101.09099854 -107.6661377 100.04171753 C-107.6292094 90.4478461 -107.57146062 80.8542963 -107.49328232 71.26066971 C-107.45375937 66.32835807 -107.42159458 61.39622625 -107.40618896 56.46377563 C-107.39105404 51.70436966 -107.35666506 46.94545789 -107.30887604 42.18627167 C-107.29402951 40.3698328 -107.28614217 38.55332338 -107.28530121 36.73682404 C-107.28293958 34.19377342 -107.25592651 31.65209756 -107.2230835 29.10928345 C-107.23062904 27.98071426 -107.23062904 27.98071426 -107.23832703 26.8293457 C-107.171593 23.49351367 -106.92238163 21.47508991 -104.97723389 18.72033691 C-102.37080734 16.91570953 -100.43514334 16.28261248 -97.33050537 15.66641235 C-96.25178162 15.44405914 -95.17305786 15.22170593 -94.06164551 14.99261475 C-92.88805481 14.76653534 -91.71446411 14.54045593 -90.50531006 14.30752563 C-89.27161682 14.05703461 -88.03792358 13.80654358 -86.7668457 13.54846191 C-84.11238351 13.0100367 -81.45739656 12.47685398 -78.80047607 11.95095825 C-74.69854474 11.13636168 -70.60429316 10.28721974 -66.51116943 9.42959595 C-60.26418353 8.12188912 -54.01421621 6.82974196 -47.76128387 5.55076981 C-44.20200665 4.82260215 -40.64344888 4.09126183 -37.08636475 3.35244751 C-33.55417359 2.61885119 -30.02047591 1.89298429 -26.48557281 1.17257309 C-24.53037915 0.77218379 -22.57674548 0.36420021 -20.62316895 -0.04400635 C-4.6776286 -3.27107678 -4.6776286 -3.27107678 0 0 Z M-25.03778076 16.50479126 C-25.76027512 16.65109482 -26.48276947 16.79739838 -27.22715759 16.94813538 C-29.60339261 17.43050796 -31.9781564 17.91975205 -34.35296631 18.40908813 C-36.00483181 18.74581697 -37.65678526 19.08211467 -39.30882263 19.41799927 C-43.64813515 20.30145182 -47.98623032 21.190746 -52.32409668 22.08126831 C-56.75422251 22.98965053 -61.1854764 23.89249425 -65.61663818 24.79580688 C-74.30460141 26.56773703 -82.99117628 28.34635192 -91.67718506 30.12783813 C-91.67718506 36.06783813 -91.67718506 42.00783813 -91.67718506 48.12783813 C-74.93147369 45.13190107 -58.23825852 41.88788102 -41.55505371 38.56332397 C-39.25743541 38.10552861 -36.95962346 37.64870413 -34.66162109 37.19284058 C-31.39404425 36.544073 -28.12729675 35.89128877 -24.86077881 35.23721313 C-23.86294876 35.03947296 -22.86511871 34.84173279 -21.83705139 34.63800049 C-20.92247665 34.4538559 -20.00790192 34.2697113 -19.06561279 34.07998657 C-18.26324692 33.91963928 -17.46088104 33.75929199 -16.63420105 33.59408569 C-14.61455368 33.19141714 -14.61455368 33.19141714 -12.67718506 32.12783813 C-12.67718506 26.51783813 -12.67718506 20.90783813 -12.67718506 15.12783813 C-17.03815623 15.12783813 -20.81650454 15.62630485 -25.03778076 16.50479126 Z M-31.67718506 100.12783813 C-34.21892321 102.50012708 -34.67089769 104.10358687 -35.55218506 107.50283813 C-35.69841335 111.74345872 -35.0554183 113.63976272 -32.67718506 117.12783813 C-29.74510277 119.57124004 -27.98896184 120.09443348 -24.17718506 120.50283813 C-20.36540827 120.09443348 -18.60926735 119.57124004 -15.67718506 117.12783813 C-13.33234613 113.68874104 -12.66637725 111.74388304 -12.73968506 107.56533813 C-13.79414913 103.69896987 -14.73179714 101.84069543 -17.67718506 99.12783813 C-23.30198342 96.58075963 -26.37294742 97.06770103 -31.67718506 100.12783813 Z M-128.61468506 122.37783813 C-130.10208568 126.22758091 -130.08370958 129.23828707 -128.67718506 133.12783813 C-125.63595898 136.53111494 -123.50379326 137.89580776 -119.11468506 139.12783813 C-115.20992298 139.12783813 -113.72389029 138.49749776 -110.67718506 136.12783813 C-110.09968506 135.73596313 -109.52218506 135.34408813 -108.92718506 134.94033813 C-106.84570616 131.92219373 -106.45373273 128.7030754 -106.67718506 125.12783813 C-108.83857985 120.72191798 -111.16788656 118.10753016 -115.67718506 116.12783813 C-121.30841019 115.11710542 -125.06568206 118.2564153 -128.61468506 122.37783813 Z " fill="#37E575" transform="translate(619.6771850585938,467.8721618652344)"/>
<path d="M0 0 C2.05938216 1.57885966 2.84571211 2.69142423 4 5 C4.10924862 8.03409449 4.15734259 11.04558175 4.16113281 14.08032227 C4.16858017 15.49285027 4.16858017 15.49285027 4.17617798 16.93391418 C4.19082753 20.0614189 4.19760806 23.1888728 4.203125 26.31640625 C4.20887642 28.48917136 4.21463415 30.66193646 4.22039795 32.83470154 C4.23091743 37.39867388 4.23675315 41.96262856 4.24023438 46.52661133 C4.24570545 52.361711 4.26969984 58.19657571 4.29820633 64.03160191 C4.31687963 68.52445646 4.32204092 73.01725512 4.32357025 77.51014519 C4.32658931 79.66022964 4.3345925 81.81031329 4.34775543 83.96035957 C4.36490543 86.97839001 4.36291319 89.99585595 4.35644531 93.01391602 C4.3656601 93.89478882 4.37487488 94.77566162 4.3843689 95.68322754 C4.33539954 103.01716285 2.8794096 109.15403689 -1.1875 115.3125 C-6.37439059 120.26886212 -10.77532359 122.22668311 -18 122.5 C-24.51488217 122.23743548 -29.15174976 120.93090036 -33.75 116.19921875 C-38.16193677 110.73732587 -40.35905056 105.54265723 -39.8125 98.4375 C-38.70800663 91.18466023 -35.61569255 87.07358405 -30.0390625 82.48046875 C-24.82073605 78.69168383 -19.24397143 78.46301846 -13 79 C-12.34 79.33 -11.68 79.66 -11 80 C-11 68.45 -11 56.9 -11 45 C-30.8 49.95 -50.6 54.9 -71 60 C-71.13082234 78.39831627 -71.13082234 78.39831627 -71.20776367 96.796875 C-71.2342236 99.11460631 -71.26250385 101.43231787 -71.29296875 103.75 C-71.28898071 104.93980469 -71.28499268 106.12960937 -71.28088379 107.35546875 C-71.4288619 116.0416931 -73.1723949 121.1723949 -79.3125 127.3125 C-84.96523013 130.86188868 -90.24634376 132.72360603 -97 132 C-103.59663353 130.2560624 -108.67105588 127.48194945 -112.25 121.5 C-115.43944276 115.12111447 -116.08882372 108.83329625 -114 101.9375 C-111.72198454 96.43771981 -107.05369024 92.4765608 -101.76123047 89.91748047 C-98.58118666 88.86083992 -96.02963124 88.80154657 -92.6875 88.875 C-91.61886719 88.89304687 -90.55023438 88.91109375 -89.44921875 88.9296875 C-88.64097656 88.95289063 -87.83273437 88.97609375 -87 89 C-87.00444122 88.1945575 -87.00888245 87.38911499 -87.01345825 86.55926514 C-87.05354017 78.96698767 -87.08398703 71.37476154 -87.10362434 63.78240585 C-87.11405948 59.8791426 -87.12821371 55.97596682 -87.15087891 52.07275391 C-87.17261699 48.305607 -87.18457066 44.5385442 -87.18975449 40.77133942 C-87.19344851 39.33443121 -87.20066203 37.89752759 -87.21146011 36.46065521 C-87.225987 34.44744866 -87.22681703 32.43415739 -87.22705078 30.42089844 C-87.231492 29.27506287 -87.23593323 28.12922729 -87.24050903 26.94866943 C-86.99887252 23.98617694 -86.76220592 22.37805774 -85 20 C-77.0478848 15.67092794 -67.25852506 14.08608214 -58.515625 11.85546875 C-57.04593166 11.47775406 -55.57626667 11.09992908 -54.10662842 10.72200012 C-51.04851735 9.93727364 -47.98923676 9.15730497 -44.92919922 8.38012695 C-41.02010892 7.38637876 -37.11570044 6.37538151 -33.2121315 5.36019421 C-30.18768972 4.57664179 -27.16031576 3.80493725 -24.13201141 3.03646278 C-22.6909075 2.66873128 -21.25087918 2.29675602 -19.81201935 1.92033958 C-17.80112443 1.39559097 -15.78665616 0.88767367 -13.77050781 0.38354492 C-12.62898254 0.09138596 -11.48745728 -0.20077301 -10.31134033 -0.50178528 C-6.59595475 -1.06079148 -3.66539375 -0.77612336 0 0 Z M-17.62133789 17.37695312 C-19.42309227 17.82742004 -19.42309227 17.82742004 -21.26124573 18.2869873 C-22.58172216 18.61838327 -23.90219218 18.94980477 -25.22265625 19.28125 C-26.56641624 19.61765605 -27.91020216 19.95395851 -29.25401306 20.29016113 C-32.79706425 21.17688012 -36.33975993 22.06501153 -39.88238525 22.95343018 C-43.49494564 23.85912401 -47.10783792 24.7634918 -50.72070312 25.66796875 C-57.81412908 27.44400939 -64.90714919 29.22166354 -72 31 C-72 35.29 -72 39.58 -72 44 C-64.40856719 42.68856574 -56.96418985 41.09929096 -49.49609375 39.21484375 C-48.45099136 38.95369278 -47.40588898 38.69254181 -46.32911682 38.42347717 C-44.14305801 37.87638193 -41.9574281 37.32757022 -39.7722168 36.77709961 C-36.41631758 35.93216679 -33.05886481 35.09363249 -29.70117188 34.25585938 C-27.57021861 33.72172861 -25.43935586 33.18723656 -23.30859375 32.65234375 C-21.8009269 32.27576881 -21.8009269 32.27576881 -20.26280212 31.8915863 C-19.3374617 31.65786819 -18.41212128 31.42415009 -17.45874023 31.18334961 C-16.64364487 30.97842392 -15.8285495 30.77349823 -14.98875427 30.56236267 C-12.94947445 30.05263897 -12.94947445 30.05263897 -11 29 C-11 24.71 -11 20.42 -11 16 C-13.20930853 16 -15.50286167 16.84622839 -17.62133789 17.37695312 Z M-24 97 C-25.16666667 98.83333333 -25.16666667 98.83333333 -25 101 C-23.85213059 103.24356294 -22.7904233 105.2095767 -21 107 C-18.12693772 107.50095023 -18.12693772 107.50095023 -15 107 C-12.34115399 105.00979883 -12.34115399 105.00979883 -11 102 C-11.40847192 98.77443477 -11.40847192 98.77443477 -13 96 C-17.5763963 92.94906914 -19.76622968 93.88037977 -24 97 Z M-99 105.625 C-100.36831008 108.87473645 -100.0645504 110.66440876 -99 114 C-97.42304368 116.0785608 -97.42304368 116.0785608 -95 117 C-91.87319901 117.00674926 -91.87319901 117.00674926 -89 116 C-86.68717413 112.53076119 -86.57521414 111.07794425 -87 107 C-87.93597315 104.98048938 -87.93597315 104.98048938 -90 104 C-94.87218644 103.35387532 -94.87218644 103.35387532 -99 105.625 Z " fill="#37E575" transform="translate(495,381)"/>
<path d="M0 0 C5.24231518 3.33224391 7.83029294 8.0249915 9.52734375 13.828125 C10.62661452 19.81625788 9.86721188 25.2336822 6.91015625 30.56640625 C3.32108493 35.7204796 -1.86565348 39.05781343 -8.02734375 40.25390625 C-15.56780875 40.74836297 -20.77534746 39.2354536 -26.77734375 34.44140625 C-30.77430374 30.74085003 -32.79859306 27.77660748 -33.3046875 22.1953125 C-33.47468524 16.2045921 -33.57479748 11.3216973 -30.02734375 6.25390625 C-29.49109375 5.38765625 -28.95484375 4.52140625 -28.40234375 3.62890625 C-20.56673343 -4.20670407 -9.62507013 -4.87194908 0 0 Z M-16.90234375 13.31640625 C-18.68969678 16.39462536 -18.46121117 18.78296693 -18.02734375 22.25390625 C-15.95908904 24.62856907 -14.5930614 25.14076272 -11.52734375 25.75390625 C-8.81219118 25.43623826 -8.81219118 25.43623826 -6.65234375 23.06640625 C-4.79552425 20.41619564 -4.79552425 20.41619564 -5.08984375 17.62890625 C-6.11996539 15.01926476 -6.67679236 13.79392268 -9.02734375 12.25390625 C-12.14545858 11.8641419 -14.13753942 11.7496838 -16.90234375 13.31640625 Z " fill="#37E575" transform="translate(551.02734375,421.74609375)"/>
<path d="M0 0 C3.5 0.5625 3.5 0.5625 5.9375 1.9375 C8.34368898 5.97989748 7.81542629 9.97129515 7.5 14.5625 C8.17546875 14.51609375 8.8509375 14.4696875 9.546875 14.421875 C16.77256982 14.12950585 16.77256982 14.12950585 20.125 16.125 C22.05866253 19.5528563 22.12199068 21.69233577 21.5 25.5625 C19.5625 28 19.5625 28 16.5 29.5625 C13.46719442 29.87186646 10.53580379 29.80060226 7.5 29.5625 C7.54640625 30.23796875 7.5928125 30.9134375 7.640625 31.609375 C7.93405676 38.86133139 7.93405676 38.86133139 5.875 42.1875 C2.72568648 44.01078677 1.08638897 44.2212245 -2.5 43.5625 C-5.375 41.625 -5.375 41.625 -7.5 38.5625 C-7.90276286 35.51373812 -7.79949079 32.61730604 -7.5 29.5625 C-8.09167969 29.62050781 -8.68335938 29.67851563 -9.29296875 29.73828125 C-13.67735649 29.98861334 -15.86433755 29.98203722 -19.625 27.5 C-21.5 24.5625 -21.5 24.5625 -21.5 20.9375 C-20.51382604 17.60916289 -20.19520353 16.55252833 -17.5 14.5625 C-15.01953125 14.26953125 -15.01953125 14.26953125 -12.3125 14.375 C-11.41144531 14.40207031 -10.51039063 14.42914062 -9.58203125 14.45703125 C-8.55142578 14.50923828 -8.55142578 14.50923828 -7.5 14.5625 C-7.54640625 13.97082031 -7.5928125 13.37914062 -7.640625 12.76953125 C-7.82551506 8.72175966 -7.80915469 6.16844319 -5.9375 2.5 C-3.5 0.5625 -3.5 0.5625 0 0 Z " fill="#FFFFFF" transform="translate(401.5,578.4375)"/>
<path d="M0 0 C1.671875 1.2265625 1.671875 1.2265625 3 3 C3.29296875 5.48046875 3.29296875 5.48046875 3.1875 8.1875 C3.16042969 9.08855469 3.13335937 9.98960937 3.10546875 10.91796875 C3.07066406 11.60503906 3.03585937 12.29210937 3 13 C4.8253125 12.9071875 4.8253125 12.9071875 6.6875 12.8125 C10.58722274 12.7986712 12.83793424 13.60449564 16 16 C17.87264676 17.87264676 17.23607378 20.49759947 17.328125 22.9921875 C17 25 17 25 15.83984375 26.74609375 C13.26449703 28.50126635 11.3953063 28.29630493 8.3125 28.1875 C6.82169922 28.14689453 6.82169922 28.14689453 5.30078125 28.10546875 C4.54152344 28.07066406 3.78226562 28.03585937 3 28 C3.04640625 28.67546875 3.0928125 29.3509375 3.140625 30.046875 C3.43299415 37.27256982 3.43299415 37.27256982 1.4375 40.625 C-1.9903563 42.55866253 -4.12983577 42.62199068 -8 42 C-10.4375 40.0625 -10.4375 40.0625 -12 37 C-12.30936646 33.96719442 -12.23810226 31.03580379 -12 28 C-12.67546875 28.04640625 -13.3509375 28.0928125 -14.046875 28.140625 C-21.29883139 28.43405676 -21.29883139 28.43405676 -24.625 26.375 C-26.40841979 23.29454763 -26.51186027 21.50989896 -26 18 C-24.22015595 14.8640843 -23.47691793 14.15897264 -20 13 C-18.60560336 12.93334624 -17.20830125 12.91461801 -15.8125 12.9375 C-13.9253125 12.9684375 -13.9253125 12.9684375 -12 13 C-12.04125 11.7625 -12.0825 10.525 -12.125 9.25 C-12.11349314 5.99355798 -12.05079997 3.66603996 -10 1 C-6.61147003 -1.54139747 -3.96754849 -1.09740703 0 0 Z " fill="#37E575" transform="translate(454,523)"/>
<path d="M0 0 C2.77781063 2.95702422 3.15972494 5.39621619 3.1875 9.3125 C3.0946875 11.1378125 3.0946875 11.1378125 3 13 C4.8253125 12.9071875 4.8253125 12.9071875 6.6875 12.8125 C10.60378381 12.84027506 13.04297578 13.22218937 16 16 C17.26732142 20.02560923 17.41653791 22.0677485 15.6875 25.9375 C11.67200001 29.01916279 7.88878935 28.41983878 3 28 C3.04640625 28.59167969 3.0928125 29.18335938 3.140625 29.79296875 C3.32551506 33.84074034 3.30915469 36.39405681 1.4375 40.0625 C-1 42 -1 42 -4.5 42.5625 C-8 42 -8 42 -10.4375 40.625 C-12.84368898 36.58260252 -12.31542629 32.59120485 -12 28 C-12.67546875 28.04640625 -13.3509375 28.0928125 -14.046875 28.140625 C-21.27256982 28.43299415 -21.27256982 28.43299415 -24.625 26.4375 C-26.51879045 23.08032602 -26.48258091 20.79170715 -26 17 C-24.16884793 14.38406847 -23.09031634 14.03010545 -20 13 C-18.60560336 12.93334624 -17.20830125 12.91461801 -15.8125 12.9375 C-13.9253125 12.9684375 -13.9253125 12.9684375 -12 13 C-12.05800781 12.32453125 -12.11601563 11.6490625 -12.17578125 10.953125 C-12.54229489 3.70662668 -12.54229489 3.70662668 -9.9375 0.3125 C-6.0677485 -1.41653791 -4.02560923 -1.26732142 0 0 Z " fill="#FFFFFF" transform="translate(605,381)"/>
</svg>
