<?xml version="1.0" encoding="UTF-8"?>
<svg version="1.1" xmlns="http://www.w3.org/2000/svg" width="215" height="215">
<path d="M0 0 C0.08701039 3.60401481 0.14039388 7.20776012 0.1875 10.8125 C0.21263672 11.83666016 0.23777344 12.86082031 0.26367188 13.91601562 C0.27333984 14.89892578 0.28300781 15.88183594 0.29296875 16.89453125 C0.3086792 17.80050049 0.32438965 18.70646973 0.34057617 19.63989258 C0 22 0 22 -1.36206055 23.79174805 C-3 25 -3 25 -5.5 25.4375 C-8 25 -8 25 -9.875 23.3125 C-11 21 -11 21 -10.875 18.375 C-10 16 -10 16 -7 14 C-6.01 14 -5.02 14 -4 14 C-4 12.68 -4 11.36 -4 10 C-4.60328125 10.144375 -5.2065625 10.28875 -5.828125 10.4375 C-7.02695312 10.7159375 -7.02695312 10.7159375 -8.25 11 C-9.03890625 11.185625 -9.8278125 11.37125 -10.640625 11.5625 C-13 12 -13 12 -17 12 C-16.97679687 12.98742187 -16.95359375 13.97484375 -16.9296875 14.9921875 C-16.90261719 16.91417969 -16.90261719 16.91417969 -16.875 18.875 C-16.85179687 20.15117188 -16.82859375 21.42734375 -16.8046875 22.7421875 C-17 26 -17 26 -19 28 C-22 28.25 -22 28.25 -25 28 C-27 26 -27 26 -27.25 23 C-27 20 -27 20 -25 18 C-23.68 18 -22.36 18 -21 18 C-21 13.05 -21 8.1 -21 3 C-12.11328125 0.75390625 -12.11328125 0.75390625 -9 0 C-8.12730469 -0.21785156 -7.25460938 -0.43570313 -6.35546875 -0.66015625 C-3.8698569 -1.01877687 -2.38493742 -0.67095024 0 0 Z M-12.1875 5 C-13.08855469 5.185625 -13.98960938 5.37125 -14.91796875 5.5625 C-15.60503906 5.706875 -16.29210938 5.85125 -17 6 C-17 6.66 -17 7.32 -17 8 C-12.71 7.34 -8.42 6.68 -4 6 C-4 5.34 -4 4.68 -4 4 C-6.9154476 4 -9.34154481 4.40863269 -12.1875 5 Z M-6 18 C-6 18.99 -6 19.98 -6 21 C-5.34 20.34 -4.68 19.68 -4 19 C-4.66 18.67 -5.32 18.34 -6 18 Z M-23 22 C-23 22.66 -23 23.32 -23 24 C-22.34 24 -21.68 24 -21 24 C-21 23.34 -21 22.68 -21 22 C-21.66 22 -22.32 22 -23 22 Z " fill="#37E575" transform="translate(49,105)"/>
<path d="M0 0 C0.05790353 3.29159316 0.09356261 6.58305603 0.125 9.875 C0.14175781 10.81214844 0.15851562 11.74929687 0.17578125 12.71484375 C0.18222656 13.61074219 0.18867188 14.50664063 0.1953125 15.4296875 C0.20578613 16.25710449 0.21625977 17.08452148 0.22705078 17.93701172 C0 20 0 20 -2 22 C-4.5 22.25 -4.5 22.25 -7 22 C-7.66 21.34 -8.32 20.68 -9 20 C-8.625 16.875 -8.625 16.875 -8 14 C-6.68 13.67 -5.36 13.34 -4 13 C-4 11.68 -4 10.36 -4 9 C-6.97 9.66 -9.94 10.32 -13 11 C-12.97679687 11.68707031 -12.95359375 12.37414062 -12.9296875 13.08203125 C-12.90261719 14.43361328 -12.90261719 14.43361328 -12.875 15.8125 C-12.85179687 16.70582031 -12.82859375 17.59914063 -12.8046875 18.51953125 C-13 21 -13 21 -15 24 C-17.5 24.3125 -17.5 24.3125 -20 24 C-22 22 -22 22 -22.25 19.5 C-22 17 -22 17 -20 15 C-19.01 15 -18.02 15 -17 15 C-17 11.04 -17 7.08 -17 3 C-10.359375 0.75390625 -10.359375 0.75390625 -8 0 C-7.32453125 -0.21785156 -6.6490625 -0.43570313 -5.953125 -0.66015625 C-3.67639396 -1.05630745 -2.20412014 -0.61177802 0 0 Z " fill="#37E575" transform="translate(27,90)"/>
<path d="M0 0 C3 1 3 1 4 3 C5.98 3 7.96 3 10 3 C10 5.31 10 7.62 10 10 C4.72 10 -0.56 10 -6 10 C-6.33 8.35 -6.66 6.7 -7 5 C-7.66 5 -8.32 5 -9 5 C-9 6.65 -9 8.3 -9 10 C-15.6 10 -22.2 10 -29 10 C-29 7.03 -29 4.06 -29 1 C-26.69 1 -24.38 1 -22 1 C-22 1.66 -22 2.32 -22 3 C-20.02 3 -18.04 3 -16 3 C-16 2.34 -16 1.68 -16 1 C-15.01 1 -14.02 1 -13 1 C-13 1.66 -13 2.32 -13 3 C-9.04 3 -5.08 3 -1 3 C-0.67 2.01 -0.34 1.02 0 0 Z M-26 3 C-25.01 3.33 -24.02 3.66 -23 4 C-23.99 5.32 -24.98 6.64 -26 8 C-24.68 8 -23.36 8 -22 8 C-22 6.35 -22 4.7 -22 3 C-23.32 3 -24.64 3 -26 3 Z M-18 5 C-17.34 5.66 -16.68 6.32 -16 7 C-16 6.34 -16 5.68 -16 5 C-16.66 5 -17.32 5 -18 5 Z M-13 5 C-12 8 -12 8 -12 8 Z M6 5 C6 5.99 6 6.98 6 8 C6.66 7.67 7.32 7.34 8 7 C8 6.34 8 5.68 8 5 C7.34 5 6.68 5 6 5 Z " fill="#000000" transform="translate(187,122)"/>
<path d="M0 0 C0.99 0.33 1.98 0.66 3 1 C3.94875 0.814375 4.8975 0.62875 5.875 0.4375 C9.38452621 -0.05383367 10.93183807 0.29546559 14 2 C16.47342266 5.71013399 16.38503486 7.61060262 16 12 C15 14.375 15 14.375 13 16 C9.58617962 16.88661593 6.26284972 17.63142486 3 16 C3 18.64 3 21.28 3 24 C1.35 24.33 -0.3 24.66 -2 25 C-2 17.08 -2 9.16 -2 1 C-1.34 0.67 -0.68 0.34 0 0 Z M3 6 C2.83333333 8.5 2.83333333 8.5 3 11 C4.11836224 12.34404775 4.11836224 12.34404775 7 12.125 C9.88163776 12.34404775 9.88163776 12.34404775 11 11 C11.16666667 8.5 11.16666667 8.5 11 6 C9.88163776 4.65595225 9.88163776 4.65595225 7 4.875 C4.11836224 4.65595225 4.11836224 4.65595225 3 6 Z " fill="#37E575" transform="translate(187,94)"/>
<path d="M0 0 C1.5625 2.625 1.5625 2.625 2 5 C1.01 5.33 0.02 5.66 -1 6 C-1.99 5.34 -2.98 4.68 -4 4 C-6.32387947 3.60612212 -8.65793749 3.26513915 -11 3 C-11 3.99 -11 4.98 -11 6 C-10.39671875 6.10957031 -9.7934375 6.21914062 -9.171875 6.33203125 C-0.30743845 8.09062108 -0.30743845 8.09062108 2 11 C2.5625 14.5 2.5625 14.5 2 18 C-0.27430757 20.34767233 -1.91140961 20.93700743 -5.16015625 21.125 C-9.60237489 20.88768615 -11.5640898 20.36474119 -15.0625 17.4375 C-15.701875 16.633125 -16.34125 15.82875 -17 15 C-16.67 14.34 -16.34 13.68 -16 13 C-12.125 13.875 -12.125 13.875 -11 15 C-9.65252916 15.23075082 -8.29622435 15.41153063 -6.9375 15.5625 C-5.638125 15.706875 -4.33875 15.85125 -3 16 C-3.33 15.01 -3.66 14.02 -4 13 C-6.00060057 12.08478813 -6.00060057 12.08478813 -8.375 11.5 C-11.74180325 10.57878999 -13.80335423 9.78056426 -16 7 C-16.43497972 4.10013523 -16.47183212 2.66056497 -14.75 0.25 C-10.16141467 -3.02756095 -4.9713921 -2.02358035 0 0 Z " fill="#37E575" transform="translate(145,90)"/>
<path d="M0 0 C0.79921875 0.19464844 1.5984375 0.38929687 2.421875 0.58984375 C3.32679687 0.82380859 3.32679687 0.82380859 4.25 1.0625 C4.58 2.7125 4.91 4.3625 5.25 6.0625 C3.93 6.0625 2.61 6.0625 1.25 6.0625 C0.92 5.7325 0.59 5.4025 0.25 5.0625 C-2.07817964 4.69489269 -4.4118385 4.36008419 -6.75 4.0625 C-6.75 5.0525 -6.75 6.0425 -6.75 7.0625 C-6.14671875 7.16046875 -5.5434375 7.2584375 -4.921875 7.359375 C-1.15527641 8.06409345 1.65078682 8.63866628 4.8125 10.875 C6.57908536 13.56328206 6.81660956 14.90567532 6.25 18.0625 C5.25 19.8125 5.25 19.8125 3.25 21.0625 C-2.81659415 22.47803864 -6.36235377 22.25110695 -11.75 19.0625 C-12.6875 16.875 -12.6875 16.875 -12.75 15.0625 C-11.76 14.7325 -10.77 14.4025 -9.75 14.0625 C-8.76 14.7225 -7.77 15.3825 -6.75 16.0625 C-4.7007906 16.51389459 -4.7007906 16.51389459 -2.5625 16.6875 C-1.304375 16.81125 -0.04625 16.935 1.25 17.0625 C1.25 16.0725 1.25 15.0825 1.25 14.0625 C0.64671875 13.96453125 0.0434375 13.8665625 -0.578125 13.765625 C-4.34472359 13.06090655 -7.15078682 12.48633372 -10.3125 10.25 C-12.07908536 7.56171794 -12.31660956 6.21932468 -11.75 3.0625 C-10.31019262 1.04676967 -9.26930728 0.24492907 -6.9375 -0.57421875 C-4.34055111 -1.00549776 -2.54523708 -0.63630927 0 0 Z " fill="#37E475" transform="translate(69.75,88.9375)"/>
<path d="M0 0 C1.32 0 2.64 0 4 0 C5.35439668 2.70879335 5.06501451 5.00933268 5 8 C6.0828125 7.6596875 6.0828125 7.6596875 7.1875 7.3125 C10.77631468 6.91374281 12.12806404 7.92582403 15 10 C16 11 16 11 16.09765625 13.72265625 C16.08605469 14.82480469 16.07445312 15.92695312 16.0625 17.0625 C16.05347656 18.16722656 16.04445312 19.27195312 16.03515625 20.41015625 C16.02355469 21.26480469 16.01195312 22.11945313 16 23 C14.0625 23.5625 14.0625 23.5625 12 24 C11 23 11 23 10.90234375 20.49609375 C10.91394531 19.48675781 10.92554688 18.47742188 10.9375 17.4375 C10.94652344 16.42558594 10.95554688 15.41367188 10.96484375 14.37109375 C10.97644531 13.58863281 10.98804688 12.80617188 11 12 C9.35 12.33 7.7 12.66 6 13 C5.97421875 13.62648438 5.9484375 14.25296875 5.921875 14.8984375 C5.86515625 15.71570313 5.8084375 16.53296875 5.75 17.375 C5.70359375 18.18710938 5.6571875 18.99921875 5.609375 19.8359375 C5 22 5 22 2.953125 23.2890625 C2.30859375 23.52367188 1.6640625 23.75828125 1 24 C0 23 0 23 -0.11352539 20.77514648 C-0.10828857 19.81680908 -0.10305176 18.85847168 -0.09765625 17.87109375 C-0.09443359 16.83662109 -0.09121094 15.80214844 -0.08789062 14.73632812 C-0.07951172 13.64771484 -0.07113281 12.55910156 -0.0625 11.4375 C-0.05798828 10.34501953 -0.05347656 9.25253906 -0.04882812 8.12695312 C-0.03699826 5.41791505 -0.02051543 2.70898401 0 0 Z " fill="#37E475" transform="translate(149,87)"/>
<path d="M0 0 C2.28062828 3.42094242 2.21925007 4.68187222 2.125 8.6875 C2.10695313 9.68136719 2.08890625 10.67523438 2.0703125 11.69921875 C2.04710938 12.45847656 2.02390625 13.21773437 2 14 C-2.91057754 15.35917771 -7.79456756 16.04758041 -12.5 13.8125 C-14 12 -14 12 -14.375 9.4375 C-14 7 -14 7 -12 5 C-12.32041397 2.39719432 -12.32041397 2.39719432 -13 0 C-7.98405141 -2.20212377 -5.07520839 -2.04960339 0 0 Z M-10 3 C-10 3.33 -10 3.66 -10 4 C-7.69 4 -5.38 4 -3 4 C-3 3.67 -3 3.34 -3 3 C-5.31 3 -7.62 3 -10 3 Z M-9 8 C-8.67 8.99 -8.34 9.98 -8 11 C-6.35 10.67 -4.7 10.34 -3 10 C-3 9.34 -3 8.68 -3 8 C-4.98 8 -6.96 8 -9 8 Z " fill="#37E475" transform="translate(105,96)"/>
<path d="M0 0 C2.9375 2.125 2.9375 2.125 5 5 C5 8.49795643 4.6664527 10.82390701 2.9375 13.875 C-0.19023091 15.69110182 -3.44105176 16.13875042 -7 16 C-9.43063337 14.86225672 -11.11813896 13.88186104 -13 12 C-13.59063136 4.79429735 -13.59063136 4.79429735 -11.1875 1.5625 C-7.24237624 -1.25544554 -4.57483635 -1.28095418 0 0 Z M-7 4 C-7.66 5.32 -8.32 6.64 -9 8 C-8.01 9.485 -8.01 9.485 -7 11 C-3.91634129 11.2502157 -3.91634129 11.2502157 -1 11 C0.00217064 7.41672247 0.00217064 7.41672247 -1 4 C-2.98 4 -4.96 4 -7 4 Z " fill="#37E575" transform="translate(179,95)"/>
<path d="M0 0 C0.99 0 1.98 0 3 0 C3.33 0.99 3.66 1.98 4 3 C5.98 3 7.96 3 10 3 C10 5.31 10 7.62 10 10 C5.05 10 0.1 10 -5 10 C-5 10.66 -5 11.32 -5 12 C-5.66 12 -6.32 12 -7 12 C-7.33 10.68 -7.66 9.36 -8 8 C-8 8.66 -8 9.32 -8 10 C-8.639375 9.814375 -9.27875 9.62875 -9.9375 9.4375 C-10.9584375 9.2209375 -10.9584375 9.2209375 -12 9 C-12.33 9.33 -12.66 9.66 -13 10 C-14.66617115 10.04063832 -16.33388095 10.042721 -18 10 C-19.125 5.25 -19.125 5.25 -18 3 C-16.02 3 -14.04 3 -12 3 C-11.67 2.34 -11.34 1.68 -11 1 C-10.34 1 -9.68 1 -9 1 C-9 1.66 -9 2.32 -9 3 C-6.36 3 -3.72 3 -1 3 C-0.67 2.01 -0.34 1.02 0 0 Z M-5 5 C-5 5.99 -5 6.98 -5 8 C-4.01 7.67 -3.02 7.34 -2 7 C-2.33 6.34 -2.66 5.68 -3 5 C-3.66 5 -4.32 5 -5 5 Z M6 5 C6 5.99 6 6.98 6 8 C6.66 8 7.32 8 8 8 C8 7.01 8 6.02 8 5 C7.34 5 6.68 5 6 5 Z " fill="#000000" transform="translate(104,122)"/>
<path d="M0 0 C1.65 0.33 3.3 0.66 5 1 C5 2.65 5 4.3 5 6 C6.32 6 7.64 6 9 6 C9 7.32 9 8.64 9 10 C7.68 10 6.36 10 5 10 C5.33 12.31 5.66 14.62 6 17 C7.32 16.67 8.64 16.34 10 16 C9.67 17.65 9.34 19.3 9 21 C6.1875 21.625 6.1875 21.625 3 22 C2.01 21.34 1.02 20.68 0 20 C-0.29296875 17.6171875 -0.29296875 17.6171875 -0.1875 14.875 C-0.16042969 13.96492188 -0.13335937 13.05484375 -0.10546875 12.1171875 C-0.07066406 11.41851562 -0.03585938 10.71984375 0 10 C-0.99 10 -1.98 10 -3 10 C-3 8.68 -3 7.36 -3 6 C-2.01 6 -1.02 6 0 6 C0 4.02 0 2.04 0 0 Z " fill="#37E575" transform="translate(80,89)"/>
<path d="M0 0 C3.375 -0.1875 3.375 -0.1875 7 0 C7.66 0.99 8.32 1.98 9 3 C9.33 2.67 9.66 2.34 10 2 C12.01964199 1.92755947 14.04167124 1.91622812 16.0625 1.9375 C17.16722656 1.94652344 18.27195313 1.95554687 19.41015625 1.96484375 C20.26480469 1.97644531 21.11945313 1.98804687 22 2 C22 3.98 22 5.96 22 8 C17.94075917 8.98405838 14.16776041 9.07718075 10 9 C9.01 9 8.02 9 7 9 C4.66666667 9 2.33333333 9 0 9 C0 6.03 0 3.06 0 0 Z M3 2 C3 3.65 3 5.3 3 7 C3.99 6.67 4.98 6.34 6 6 C6 4.68 6 3.36 6 2 C5.01 2 4.02 2 3 2 Z M11 4 C11 4.99 11 5.98 11 7 C11.66 7 12.32 7 13 7 C13 6.01 13 5.02 13 4 C12.34 4 11.68 4 11 4 Z " fill="#000000" transform="translate(132,123)"/>
<path d="M0 0 C1.99963028 0.03845443 4.00051633 0.04544281 6 0 C6 1.32 6 2.64 6 4 C4.02 4.66 2.04 5.32 0 6 C-0.33 8.97 -0.66 11.94 -1 15 C-2.32 15.33 -3.64 15.66 -5 16 C-6 15 -6 15 -6.09765625 11.62109375 C-6.09098369 10.22652923 -6.07902532 8.83198257 -6.0625 7.4375 C-6.05798828 6.72658203 -6.05347656 6.01566406 -6.04882812 5.28320312 C-6.03700864 3.52209987 -6.01907263 1.76103964 -6 0 C-3.43459849 -1.28270075 -2.73623338 -0.68405835 0 0 Z " fill="#37E475" transform="translate(114,95)"/>
<path d="M0 0 C2.475 0.99 2.475 0.99 5 2 C5.33 1.34 5.66 0.68 6 0 C6.99 0 7.98 0 9 0 C9.33 0.66 9.66 1.32 10 2 C11.98 2 13.96 2 16 2 C16 4.31 16 6.62 16 9 C12.7 9 9.4 9 6 9 C5.67 8.34 5.34 7.68 5 7 C4.34 7 3.68 7 3 7 C2.67 7.66 2.34 8.32 2 9 C1.34 9 0.68 9 0 9 C0 6.03 0 3.06 0 0 Z M12 4 C12 4.99 12 5.98 12 7 C12.66 7 13.32 7 14 7 C14 6.01 14 5.02 14 4 C13.34 4 12.68 4 12 4 Z " fill="#000000" transform="translate(57,123)"/>
<path d="M0 0 C1.50046875 0.00386719 1.50046875 0.00386719 3.03125 0.0078125 C4.0315625 0.00523438 5.031875 0.00265625 6.0625 0 C8.53125 0.1328125 8.53125 0.1328125 9.53125 1.1328125 C9.65625 3.6328125 9.65625 3.6328125 9.53125 6.1328125 C8.53125 7.1328125 8.53125 7.1328125 6.0625 7.265625 C4.56203125 7.26175781 4.56203125 7.26175781 3.03125 7.2578125 C2.0309375 7.26039063 1.030625 7.26296875 0 7.265625 C-2.46875 7.1328125 -2.46875 7.1328125 -3.46875 6.1328125 C-3.59375 3.6328125 -3.59375 3.6328125 -3.46875 1.1328125 C-2.46875 0.1328125 -2.46875 0.1328125 0 0 Z M-1.46875 2.1328125 C-1.46875 3.1228125 -1.46875 4.1128125 -1.46875 5.1328125 C-0.14875 4.8028125 1.17125 4.4728125 2.53125 4.1328125 C2.53125 3.4728125 2.53125 2.8128125 2.53125 2.1328125 C1.21125 2.1328125 -0.10875 2.1328125 -1.46875 2.1328125 Z " fill="#000000" transform="translate(118.46875,124.8671875)"/>
<path d="M0 0 C2.5625 0.1875 2.5625 0.1875 4.5625 2.1875 C4.8125 4.6875 4.8125 4.6875 4.5625 7.1875 C2.5625 9.1875 2.5625 9.1875 0.0625 9.5 C-1.175 9.3453125 -1.175 9.3453125 -2.4375 9.1875 C-4.4375 6.1875 -4.4375 6.1875 -4.125 3.5625 C-3.16420807 0.24340062 -3.16420807 0.24340062 0 0 Z " fill="#37E475" transform="translate(33.4375,95.8125)"/>
<path d="M0 0 C0.66 0 1.32 0 2 0 C2.33 1.32 2.66 2.64 3 4 C3.99 3.67 4.98 3.34 6 3 C5.814375 3.598125 5.62875 4.19625 5.4375 4.8125 C4.77906313 7.16408762 4.77906313 7.16408762 6 10 C4 10 2 10 0 10 C0 8.35 0 6.7 0 5 C-0.99 5.495 -0.99 5.495 -2 6 C-2.65213292 8.02463255 -2.65213292 8.02463255 -3 10 C-3.66 10 -4.32 10 -5 10 C-5 7.69 -5 5.38 -5 3 C-3.35 3 -1.7 3 0 3 C0 2.01 0 1.02 0 0 Z " fill="#000000" transform="translate(79,122)"/>
<path d="M0 0 C0.99 0 1.98 0 3 0 C3 0.99 3 1.98 3 3 C3.99 3 4.98 3 6 3 C5.67 4.32 5.34 5.64 5 7 C4.34 7 3.68 7 3 7 C3 7.66 3 8.32 3 9 C0.13275314 8.42655063 -0.8614515 8.1385485 -3 6 C-3 5.01 -3 4.02 -3 3 C-2.34 3 -1.68 3 -1 3 C-0.67 2.01 -0.34 1.02 0 0 Z " fill="#FFFFFF" transform="translate(8,124)"/>
<path d="M0 0 C0.99 0.33 1.98 0.66 3 1 C3 1.66 3 2.32 3 3 C3.66 3 4.32 3 5 3 C5 4.32 5 5.64 5 7 C4.34 7 3.68 7 3 7 C3 7.66 3 8.32 3 9 C1.68 9 0.36 9 -1 9 C-1 8.34 -1 7.68 -1 7 C-1.99 6.67 -2.98 6.34 -4 6 C-3.67 5.01 -3.34 4.02 -3 3 C-2.34 3 -1.68 3 -1 3 C-0.67 2.01 -0.34 1.02 0 0 Z " fill="#37E475" transform="translate(17,114)"/>
<path d="M0 0 C0.99 0 1.98 0 3 0 C3 0.99 3 1.98 3 3 C3.99 3 4.98 3 6 3 C5.67 4.32 5.34 5.64 5 7 C4.34 7 3.68 7 3 7 C3 7.66 3 8.32 3 9 C0.13275314 8.42655063 -0.8614515 8.1385485 -3 6 C-3 5.01 -3 4.02 -3 3 C-2.34 3 -1.68 3 -1 3 C-0.67 2.01 -0.34 1.02 0 0 Z " fill="#FFFFFF" transform="translate(43,89)"/>
<path d="M0 0 C1.65 0 3.3 0 5 0 C5 2.31 5 4.62 5 7 C3.35 7 1.7 7 0 7 C0 4.69 0 2.38 0 0 Z " fill="#000000" transform="translate(198,125)"/>
</svg>
